<svg xmlns="http://www.w3.org/2000/svg" xmlns:xlink="http://www.w3.org/1999/xlink" contentStyleType="text/css" data-diagram-type="ACTIVITY" height="684px" preserveAspectRatio="none" style="width:762px;height:684px;background:#FFFFFF;" version="1.1" viewBox="0 0 762 684" width="762px" zoomAndPan="magnify"><title>Diagramme d'activité - Jeu Géometry Dash</title><defs/><g><g class="title" data-source-line="1"><text fill="#000000" font-family="sans-serif" font-size="14" font-weight="bold" lengthAdjust="spacing" textLength="336.1982" x="211.8773" y="32.9951">Diagramme d'activité - Jeu Géometry Dash</text></g><ellipse cx="359.4954" cy="57.2969" fill="#222222" rx="10" ry="10" style="stroke:#222222;stroke-width:1;"/><rect fill="#F1F1F1" height="33.9688" rx="12.5" ry="12.5" style="stroke:#181818;stroke-width:0.5;" width="151.7305" x="283.6301" y="87.2969"/><text fill="#000000" font-family="sans-serif" font-size="12" lengthAdjust="spacing" textLength="131.7305" x="293.6301" y="108.4355">Commencer le niveau</text><line style="stroke:#181818;stroke-width:1.5;" x1="121.3469" x2="602.6685" y1="195.2344" y2="195.2344"/><polygon fill="#F1F1F1" points="77.0488,229.1333,165.645,229.1333,177.645,241.1333,165.645,253.1333,77.0488,253.1333,65.0488,241.1333,77.0488,229.1333" style="stroke:#181818;stroke-width:0.5;"/><text fill="#000000" font-family="sans-serif" font-size="11" lengthAdjust="spacing" textLength="88.5962" x="77.0488" y="244.9414">Bouton pressé ?</text><text fill="#000000" font-family="sans-serif" font-size="11" lengthAdjust="spacing" textLength="18.686" x="46.3628" y="238.5391">Oui</text><text fill="#000000" font-family="sans-serif" font-size="11" lengthAdjust="spacing" textLength="21.9302" x="177.645" y="238.5391">Non</text><rect fill="#F1F1F1" height="33.9688" rx="12.5" ry="12.5" style="stroke:#181818;stroke-width:0.5;" width="88.0977" x="11" y="263.1333"/><text fill="#000000" font-family="sans-serif" font-size="12" lengthAdjust="spacing" textLength="68.0977" x="21" y="284.272">Cube saute</text><rect fill="#F1F1F1" height="33.9688" rx="12.5" ry="12.5" style="stroke:#181818;stroke-width:0.5;" width="90.5" x="142.395" y="263.1333"/><text fill="#000000" font-family="sans-serif" font-size="12" lengthAdjust="spacing" textLength="70.5" x="152.395" y="284.272">Cube au sol</text><polygon fill="#F1F1F1" points="121.3469,303.1021,133.3469,315.1021,121.3469,327.1021,109.3469,315.1021,121.3469,303.1021" style="stroke:#181818;stroke-width:0.5;"/><polygon fill="#F1F1F1" points="302.4692,229.1333,391.0654,229.1333,403.0654,241.1333,391.0654,253.1333,302.4692,253.1333,290.4692,241.1333,302.4692,229.1333" style="stroke:#181818;stroke-width:0.5;"/><text fill="#000000" font-family="sans-serif" font-size="11" lengthAdjust="spacing" textLength="88.5962" x="302.4692" y="244.9414">Bouton pressé ?</text><text fill="#000000" font-family="sans-serif" font-size="11" lengthAdjust="spacing" textLength="18.686" x="271.7832" y="238.5391">Oui</text><text fill="#000000" font-family="sans-serif" font-size="11" lengthAdjust="spacing" textLength="21.9302" x="403.0654" y="238.5391">Non</text><rect fill="#F1F1F1" height="33.9688" rx="12.5" ry="12.5" style="stroke:#181818;stroke-width:0.5;" width="75.1484" x="242.895" y="263.1333"/><text fill="#000000" font-family="sans-serif" font-size="12" lengthAdjust="spacing" textLength="55.1484" x="252.895" y="284.272">Ship vole</text><rect fill="#F1F1F1" height="33.9688" rx="12.5" ry="12.5" style="stroke:#181818;stroke-width:0.5;" width="100.4434" x="362.8438" y="263.1333"/><text fill="#000000" font-family="sans-serif" font-size="12" lengthAdjust="spacing" textLength="80.4434" x="372.8438" y="284.272">Ship descend</text><polygon fill="#F1F1F1" points="346.7673,303.1021,358.7673,315.1021,346.7673,327.1021,334.7673,315.1021,346.7673,303.1021" style="stroke:#181818;stroke-width:0.5;"/><polygon fill="#F1F1F1" points="558.3704,229.1333,646.9666,229.1333,658.9666,241.1333,646.9666,253.1333,558.3704,253.1333,546.3704,241.1333,558.3704,229.1333" style="stroke:#181818;stroke-width:0.5;"/><text fill="#000000" font-family="sans-serif" font-size="11" lengthAdjust="spacing" textLength="88.5962" x="558.3704" y="244.9414">Bouton pressé ?</text><text fill="#000000" font-family="sans-serif" font-size="11" lengthAdjust="spacing" textLength="18.686" x="527.6843" y="238.5391">Oui</text><text fill="#000000" font-family="sans-serif" font-size="11" lengthAdjust="spacing" textLength="21.9302" x="658.9666" y="238.5391">Non</text><rect fill="#F1F1F1" height="33.9688" rx="12.5" ry="12.5" style="stroke:#181818;stroke-width:0.5;" width="96.2422" x="488.2493" y="263.1333"/><text fill="#000000" font-family="sans-serif" font-size="12" lengthAdjust="spacing" textLength="76.2422" x="498.2493" y="284.272">Wave monte</text><rect fill="#F1F1F1" height="33.9688" rx="12.5" ry="12.5" style="stroke:#181818;stroke-width:0.5;" width="107.9727" x="614.9802" y="263.1333"/><text fill="#000000" font-family="sans-serif" font-size="12" lengthAdjust="spacing" textLength="87.9727" x="624.9802" y="284.272">Wave descend</text><polygon fill="#F1F1F1" points="602.6685,303.1021,614.6685,315.1021,602.6685,327.1021,590.6685,315.1021,602.6685,303.1021" style="stroke:#181818;stroke-width:0.5;"/><line style="stroke:#181818;stroke-width:1.5;" x1="121.3469" x2="602.6685" y1="347.1021" y2="347.1021"/><rect fill="#F1F1F1" height="33.9688" rx="12.5" ry="12.5" style="stroke:#181818;stroke-width:0.5;" width="165.6699" x="276.6604" y="418.4966"/><text fill="#000000" font-family="sans-serif" font-size="12" lengthAdjust="spacing" textLength="145.6699" x="286.6604" y="439.6353">Recommencer le niveau</text><ellipse cx="359.4954" cy="489.981" fill="none" rx="10" ry="10" style="stroke:#222222;stroke-width:1.5;"/><line style="stroke:#222222;stroke-width:2.5;" x1="353.3082" x2="365.6825" y1="483.7938" y2="496.1681"/><line style="stroke:#222222;stroke-width:2.5;" x1="365.6825" x2="353.3082" y1="483.7938" y2="496.1681"/><polygon fill="#F1F1F1" points="305.6824,370.0942,413.3083,370.0942,425.3083,382.0942,413.3083,394.0942,305.6824,394.0942,293.6824,382.0942,305.6824,370.0942" style="stroke:#181818;stroke-width:0.5;"/><text fill="#000000" font-family="sans-serif" font-size="11" lengthAdjust="spacing" textLength="18.686" x="363.4954" y="404.3047">Oui</text><text fill="#000000" font-family="sans-serif" font-size="11" lengthAdjust="spacing" textLength="107.626" x="305.6824" y="385.9023">Collision détectée ?</text><text fill="#000000" font-family="sans-serif" font-size="11" lengthAdjust="spacing" textLength="21.9302" x="425.3083" y="379.5">Non</text><rect fill="#F1F1F1" height="33.9688" rx="12.5" ry="12.5" style="stroke:#181818;stroke-width:0.5;" width="217.5078" x="250.7415" y="141.2656"/><text fill="#000000" font-family="sans-serif" font-size="12" lengthAdjust="spacing" textLength="197.5078" x="260.7415" y="162.4043">Joueur avance automatiquement</text><polygon fill="#F1F1F1" points="317.668,541.981,401.3228,541.981,413.3228,553.981,401.3228,565.981,317.668,565.981,305.668,553.981,317.668,541.981" style="stroke:#181818;stroke-width:0.5;"/><text fill="#000000" font-family="sans-serif" font-size="11" lengthAdjust="spacing" textLength="18.686" x="363.4954" y="576.1914">Oui</text><text fill="#000000" font-family="sans-serif" font-size="11" lengthAdjust="spacing" textLength="83.6548" x="317.668" y="557.7891">Fin du niveau ?</text><text fill="#000000" font-family="sans-serif" font-size="11" lengthAdjust="spacing" textLength="21.9302" x="413.3228" y="551.3867">Non</text><rect fill="#F1F1F1" height="33.9688" rx="12.5" ry="12.5" style="stroke:#181818;stroke-width:0.5;" width="178.4902" x="270.2502" y="597.6914"/><text fill="#000000" font-family="sans-serif" font-size="12" lengthAdjust="spacing" textLength="158.4902" x="280.2502" y="618.8301">Revenir au menu principal</text><ellipse cx="359.4954" cy="662.6602" fill="none" rx="11" ry="11" style="stroke:#222222;stroke-width:1;"/><ellipse cx="359.4954" cy="662.6602" fill="#222222" rx="6" ry="6" style="stroke:#222222;stroke-width:1;"/><line style="stroke:#181818;stroke-width:1;" x1="359.4954" x2="359.4954" y1="67.2969" y2="87.2969"/><polygon fill="#181818" points="355.4954,77.2969,359.4954,87.2969,363.4954,77.2969,359.4954,81.2969" style="stroke:#181818;stroke-width:1;"/><line style="stroke:#181818;stroke-width:1;" x1="65.0488" x2="55.0488" y1="241.1333" y2="241.1333"/><line style="stroke:#181818;stroke-width:1;" x1="55.0488" x2="55.0488" y1="241.1333" y2="263.1333"/><polygon fill="#181818" points="51.0488,253.1333,55.0488,263.1333,59.0488,253.1333,55.0488,257.1333" style="stroke:#181818;stroke-width:1;"/><line style="stroke:#181818;stroke-width:1;" x1="177.645" x2="187.645" y1="241.1333" y2="241.1333"/><line style="stroke:#181818;stroke-width:1;" x1="187.645" x2="187.645" y1="241.1333" y2="263.1333"/><polygon fill="#181818" points="183.645,253.1333,187.645,263.1333,191.645,253.1333,187.645,257.1333" style="stroke:#181818;stroke-width:1;"/><line style="stroke:#181818;stroke-width:1;" x1="55.0488" x2="55.0488" y1="297.1021" y2="315.1021"/><line style="stroke:#181818;stroke-width:1;" x1="55.0488" x2="109.3469" y1="315.1021" y2="315.1021"/><polygon fill="#181818" points="99.3469,311.1021,109.3469,315.1021,99.3469,319.1021,103.3469,315.1021" style="stroke:#181818;stroke-width:1;"/><line style="stroke:#181818;stroke-width:1;" x1="187.645" x2="187.645" y1="297.1021" y2="315.1021"/><line style="stroke:#181818;stroke-width:1;" x1="187.645" x2="133.3469" y1="315.1021" y2="315.1021"/><polygon fill="#181818" points="143.3469,311.1021,133.3469,315.1021,143.3469,319.1021,139.3469,315.1021" style="stroke:#181818;stroke-width:1;"/><line style="stroke:#181818;stroke-width:1;" x1="290.4692" x2="280.4692" y1="241.1333" y2="241.1333"/><line style="stroke:#181818;stroke-width:1;" x1="280.4692" x2="280.4692" y1="241.1333" y2="263.1333"/><polygon fill="#181818" points="276.4692,253.1333,280.4692,263.1333,284.4692,253.1333,280.4692,257.1333" style="stroke:#181818;stroke-width:1;"/><line style="stroke:#181818;stroke-width:1;" x1="403.0654" x2="413.0654" y1="241.1333" y2="241.1333"/><line style="stroke:#181818;stroke-width:1;" x1="413.0654" x2="413.0654" y1="241.1333" y2="263.1333"/><polygon fill="#181818" points="409.0654,253.1333,413.0654,263.1333,417.0654,253.1333,413.0654,257.1333" style="stroke:#181818;stroke-width:1;"/><line style="stroke:#181818;stroke-width:1;" x1="280.4692" x2="280.4692" y1="297.1021" y2="315.1021"/><line style="stroke:#181818;stroke-width:1;" x1="280.4692" x2="334.7673" y1="315.1021" y2="315.1021"/><polygon fill="#181818" points="324.7673,311.1021,334.7673,315.1021,324.7673,319.1021,328.7673,315.1021" style="stroke:#181818;stroke-width:1;"/><line style="stroke:#181818;stroke-width:1;" x1="413.0654" x2="413.0654" y1="297.1021" y2="315.1021"/><line style="stroke:#181818;stroke-width:1;" x1="413.0654" x2="358.7673" y1="315.1021" y2="315.1021"/><polygon fill="#181818" points="368.7673,311.1021,358.7673,315.1021,368.7673,319.1021,364.7673,315.1021" style="stroke:#181818;stroke-width:1;"/><line style="stroke:#181818;stroke-width:1;" x1="546.3704" x2="536.3704" y1="241.1333" y2="241.1333"/><line style="stroke:#181818;stroke-width:1;" x1="536.3704" x2="536.3704" y1="241.1333" y2="263.1333"/><polygon fill="#181818" points="532.3704,253.1333,536.3704,263.1333,540.3704,253.1333,536.3704,257.1333" style="stroke:#181818;stroke-width:1;"/><line style="stroke:#181818;stroke-width:1;" x1="658.9666" x2="668.9666" y1="241.1333" y2="241.1333"/><line style="stroke:#181818;stroke-width:1;" x1="668.9666" x2="668.9666" y1="241.1333" y2="263.1333"/><polygon fill="#181818" points="664.9666,253.1333,668.9666,263.1333,672.9666,253.1333,668.9666,257.1333" style="stroke:#181818;stroke-width:1;"/><line style="stroke:#181818;stroke-width:1;" x1="536.3704" x2="536.3704" y1="297.1021" y2="315.1021"/><line style="stroke:#181818;stroke-width:1;" x1="536.3704" x2="590.6685" y1="315.1021" y2="315.1021"/><polygon fill="#181818" points="580.6685,311.1021,590.6685,315.1021,580.6685,319.1021,584.6685,315.1021" style="stroke:#181818;stroke-width:1;"/><line style="stroke:#181818;stroke-width:1;" x1="668.9666" x2="668.9666" y1="297.1021" y2="315.1021"/><line style="stroke:#181818;stroke-width:1;" x1="668.9666" x2="614.6685" y1="315.1021" y2="315.1021"/><polygon fill="#181818" points="624.6685,311.1021,614.6685,315.1021,624.6685,319.1021,620.6685,315.1021" style="stroke:#181818;stroke-width:1;"/><line style="stroke:#0000FF;stroke-width:1;" x1="121.3469" x2="121.3469" y1="196.7344" y2="229.1333"/><polygon fill="#0000FF" points="117.3469,219.1333,121.3469,229.1333,125.3469,219.1333,121.3469,223.1333" style="stroke:#0000FF;stroke-width:1;"/><text fill="#000000" font-family="sans-serif" font-size="11" lengthAdjust="spacing" textLength="28.4023" x="125.3469" y="216.5391">Cube</text><line style="stroke:#FF0000;stroke-width:1;" x1="346.7673" x2="346.7673" y1="196.7344" y2="229.1333"/><polygon fill="#FF0000" points="342.7673,219.1333,346.7673,229.1333,350.7673,219.1333,346.7673,223.1333" style="stroke:#FF0000;stroke-width:1;"/><text fill="#000000" font-family="sans-serif" font-size="11" lengthAdjust="spacing" textLength="23.9927" x="350.7673" y="216.5391">Ship</text><line style="stroke:#008000;stroke-width:1;" x1="602.6685" x2="602.6685" y1="196.7344" y2="229.1333"/><polygon fill="#008000" points="598.6685,219.1333,602.6685,229.1333,606.6685,219.1333,602.6685,223.1333" style="stroke:#008000;stroke-width:1;"/><text fill="#000000" font-family="sans-serif" font-size="11" lengthAdjust="spacing" textLength="30.8945" x="606.6685" y="216.5391">Wave</text><line style="stroke:#181818;stroke-width:1;" x1="121.3469" x2="121.3469" y1="327.1021" y2="347.1021"/><polygon fill="#181818" points="117.3469,337.1021,121.3469,347.1021,125.3469,337.1021,121.3469,341.1021" style="stroke:#181818;stroke-width:1;"/><line style="stroke:#181818;stroke-width:1;" x1="346.7673" x2="346.7673" y1="327.1021" y2="347.1021"/><polygon fill="#181818" points="342.7673,337.1021,346.7673,347.1021,350.7673,337.1021,346.7673,341.1021" style="stroke:#181818;stroke-width:1;"/><line style="stroke:#181818;stroke-width:1;" x1="602.6685" x2="602.6685" y1="327.1021" y2="347.1021"/><polygon fill="#181818" points="598.6685,337.1021,602.6685,347.1021,606.6685,337.1021,602.6685,341.1021" style="stroke:#181818;stroke-width:1;"/><line style="stroke:#181818;stroke-width:1;" x1="359.4954" x2="359.4954" y1="452.4653" y2="479.981"/><polygon fill="#181818" points="355.4954,469.981,359.4954,479.981,363.4954,469.981,359.4954,473.981" style="stroke:#181818;stroke-width:1;"/><line style="stroke:#181818;stroke-width:1;" x1="359.4954" x2="359.4954" y1="394.0942" y2="418.4966"/><polygon fill="#181818" points="355.4954,408.4966,359.4954,418.4966,363.4954,408.4966,359.4954,412.4966" style="stroke:#181818;stroke-width:1;"/><line style="stroke:#181818;stroke-width:1;" x1="425.3083" x2="452.3303" y1="382.0942" y2="382.0942"/><polygon fill="#181818" points="448.3303,449.981,452.3303,459.981,456.3303,449.981,452.3303,453.981" style="stroke:#181818;stroke-width:1;"/><line style="stroke:#181818;stroke-width:1;" x1="452.3303" x2="452.3303" y1="382.0942" y2="521.981"/><line style="stroke:#181818;stroke-width:1;" x1="452.3303" x2="359.4954" y1="521.981" y2="521.981"/><line style="stroke:#181818;stroke-width:1;" x1="359.4954" x2="359.4954" y1="521.981" y2="541.981"/><polygon fill="#181818" points="355.4954,531.981,359.4954,541.981,363.4954,531.981,359.4954,535.981" style="stroke:#181818;stroke-width:1;"/><line style="stroke:#181818;stroke-width:1;" x1="359.4954" x2="359.4954" y1="348.6021" y2="370.0942"/><polygon fill="#181818" points="355.4954,360.0942,359.4954,370.0942,363.4954,360.0942,359.4954,364.0942" style="stroke:#181818;stroke-width:1;"/><line style="stroke:#181818;stroke-width:1;" x1="359.4954" x2="359.4954" y1="175.2344" y2="195.2344"/><polygon fill="#181818" points="355.4954,185.2344,359.4954,195.2344,363.4954,185.2344,359.4954,189.2344" style="stroke:#181818;stroke-width:1;"/><line style="stroke:#181818;stroke-width:1;" x1="413.3228" x2="736.9529" y1="553.981" y2="553.981"/><polygon fill="#181818" points="732.9529,367.1021,736.9529,357.1021,740.9529,367.1021,736.9529,363.1021" style="stroke:#181818;stroke-width:1;"/><line style="stroke:#181818;stroke-width:1;" x1="736.9529" x2="736.9529" y1="158.25" y2="553.981"/><line style="stroke:#181818;stroke-width:1;" x1="736.9529" x2="468.2493" y1="158.25" y2="158.25"/><polygon fill="#181818" points="478.2493,154.25,468.2493,158.25,478.2493,162.25,474.2493,158.25" style="stroke:#181818;stroke-width:1;"/><line style="stroke:#181818;stroke-width:1;" x1="359.4954" x2="359.4954" y1="121.2656" y2="141.2656"/><polygon fill="#181818" points="355.4954,131.2656,359.4954,141.2656,363.4954,131.2656,359.4954,135.2656" style="stroke:#181818;stroke-width:1;"/><line style="stroke:#181818;stroke-width:1;" x1="359.4954" x2="359.4954" y1="565.981" y2="597.6914"/><polygon fill="#181818" points="355.4954,587.6914,359.4954,597.6914,363.4954,587.6914,359.4954,591.6914" style="stroke:#181818;stroke-width:1;"/><line style="stroke:#181818;stroke-width:1;" x1="359.4954" x2="359.4954" y1="631.6602" y2="651.6602"/><polygon fill="#181818" points="355.4954,641.6602,359.4954,651.6602,363.4954,641.6602,359.4954,645.6602" style="stroke:#181818;stroke-width:1;"/><!--SRC=[hPDDJiD038NtEOKb5gIBNY2LGA8LI5s010iMY8MRk8sboKoOyGHnf9wZ5yFJLlI7gbIbtetYz_Az6LjO3C68SUQnQGYgQoo5EvR57FemfWWFYxbhIFmNZ33KMH3qaXL3fzss90ygjzmHna46w_BK4aenTf6Y1-nG6m6Zk0Q5FoAfKZRTeJKiFwTK_RUhYOdqth-1OPpGOETZAfv2VkVKq4BhAGI5lUs1r6GXVuhS-oL8LIGl2Cfnm95C8CWVdJscnGZ1cGDYM_5qDm_W3Ddkf_9KfL0lDRUN2fMye7FcZ4nBQKMXLFv_X9fv8fjYlM9tiRTANj0uUyvRBRKdvjBJtW1cs-13Pmm7LlPgCHSgTIte3_pYcSfZox7rv-n8eWtcQflWisPro-zPMUBQDQ5mM2d1Ejb2KeoEBFiqj0eJzVBPbjoYpcyGrtu3]--></g><link xmlns=""/><script xmlns=""/></svg>