<svg xmlns="http://www.w3.org/2000/svg" xmlns:xlink="http://www.w3.org/1999/xlink" contentStyleType="text/css" data-diagram-type="STATE" height="526px" preserveAspectRatio="none" style="width:792px;height:526px;background:#FFFFFF;" version="1.1" viewBox="0 0 792 526" width="792px" zoomAndPan="magnify"><title>Diagramme d'état - Jeu Géometry Dash</title><defs/><g><g class="title" data-source-line="1"><text fill="#000000" font-family="sans-serif" font-size="14" font-weight="bold" lengthAdjust="spacing" textLength="309.1758" x="234.8869" y="22.9951">Diagramme d'état - Jeu Géometry Dash</text></g><!--cluster Vivant--><g class="cluster" data-entity="Vivant" data-source-line="4" data-uid="ent0002" id="cluster_Vivant"><path d="M19.5,118.2969 L697.5,118.2969 A12.5,12.5 0 0 1 710,130.7969 L710,139.5938 L7,139.5938 L7,130.7969 A12.5,12.5 0 0 1 19.5,118.2969" fill="#F1F1F1"/><rect fill="none" height="402.31" rx="12.5" ry="12.5" style="stroke:#181818;stroke-width:0.5;" width="703" x="7" y="118.2969"/><line style="stroke:#181818;stroke-width:0.5;" x1="7" x2="710" y1="139.5938" y2="139.5938"/><text fill="#000000" font-family="sans-serif" font-size="14" lengthAdjust="spacing" textLength="44.6934" x="336.1533" y="135.292">Vivant</text></g><path d="M43.88,223.0169 L320.1227,223.0169 A12.5,12.5 0 0 1 332.6227,235.5169 L332.6227,249.3138 L31.38,249.3138 L31.38,235.5169 A12.5,12.5 0 0 1 43.88,223.0169" fill="#F1F1F1"/><rect fill="none" height="98.2969" rx="12.5" ry="12.5" style="stroke:#181818;stroke-width:0.5;" width="301.2427" x="31.38" y="223.0169"/><line style="stroke:#181818;stroke-width:0.5;" x1="31.38" x2="332.6227" y1="249.3138" y2="249.3138"/><text fill="#000000" font-family="sans-serif" font-size="14" lengthAdjust="spacing" textLength="36.1484" x="163.9271" y="241.012">Cube</text><g id="Vivant.Cube.Grounded"><rect fill="#F1F1F1" height="50" rx="12.5" ry="12.5" style="stroke:#181818;stroke-width:0.5;" width="89.3027" x="234.32" y="261.3138"/><line style="stroke:#181818;stroke-width:0.5;" x1="234.32" x2="323.6227" y1="287.6106" y2="287.6106"/><text fill="#000000" font-family="sans-serif" font-size="14" lengthAdjust="spacing" textLength="69.3027" x="244.32" y="279.3089">Grounded</text></g><g id="Vivant.Cube.Jumping"><rect fill="#F1F1F1" height="50" rx="12.5" ry="12.5" style="stroke:#181818;stroke-width:0.5;" width="77.1758" x="43.38" y="261.3138"/><line style="stroke:#181818;stroke-width:0.5;" x1="43.38" x2="120.5558" y1="287.6106" y2="287.6106"/><text fill="#000000" font-family="sans-serif" font-size="14" lengthAdjust="spacing" textLength="57.1758" x="53.38" y="279.3089">Jumping</text></g><!--reverse link Jumping to Grounded--><g class="link" data-entity-1="Jumping" data-entity-2="Grounded" data-source-line="8" data-uid="lnk8" id="link_Jumping_Grounded"><path d="M126.5116,299.7539 C139.0616,303.0639 147.32,304.6738 160.44,306.3138 C184.87,309.3738 211.96,305.3738 234.07,300.1538" fill="none" id="Jumping-backto-Grounded" style="stroke:#181818;stroke-width:1;"/><polygon fill="#181818" points="120.71,298.2238,128.3923,304.3867,125.5447,299.4989,130.4325,296.6512,120.71,298.2238" style="stroke:#181818;stroke-width:1;"/><text fill="#000000" font-family="sans-serif" font-size="13" lengthAdjust="spacing" textLength="32.9888" x="161.44" y="302.3806">Jump</text></g><!--link Jumping to Grounded--><g class="link" data-entity-1="Jumping" data-entity-2="Grounded" data-source-line="9" data-uid="lnk9" id="link_Jumping_Grounded"><path d="M120.89,286.3138 C153.41,286.3138 193.8,286.3138 227.92,286.3138" fill="none" id="Jumping-to-Grounded" style="stroke:#181818;stroke-width:1;"/><polygon fill="#181818" points="233.92,286.3138,224.92,282.3138,228.92,286.3138,224.92,290.3138,233.92,286.3138" style="stroke:#181818;stroke-width:1;"/><text fill="#000000" font-family="sans-serif" font-size="13" lengthAdjust="spacing" textLength="94.123" x="130.44" y="279.3806">Touch_Ground</text></g><path d="M505.02,223.0169 L646.987,223.0169 A12.5,12.5 0 0 1 659.487,235.5169 L659.487,249.3138 L492.52,249.3138 L492.52,235.5169 A12.5,12.5 0 0 1 505.02,223.0169" fill="#F1F1F1"/><rect fill="none" height="98.2969" rx="12.5" ry="12.5" style="stroke:#181818;stroke-width:0.5;" width="166.967" x="492.52" y="223.0169"/><line style="stroke:#181818;stroke-width:0.5;" x1="492.52" x2="659.487" y1="249.3138" y2="249.3138"/><text fill="#000000" font-family="sans-serif" font-size="14" lengthAdjust="spacing" textLength="30.5361" x="560.7354" y="241.012">Ship</text><g id="Vivant.Ship.Flying"><rect fill="#F1F1F1" height="50" rx="12.5" ry="12.5" style="stroke:#181818;stroke-width:0.5;" width="61.877" x="588.61" y="261.3138"/><line style="stroke:#181818;stroke-width:0.5;" x1="588.61" x2="650.487" y1="287.6106" y2="287.6106"/><text fill="#000000" font-family="sans-serif" font-size="14" lengthAdjust="spacing" textLength="41.877" x="598.61" y="279.3089">Flying</text></g><g id="Vivant.Ship.Falling"><rect fill="#F1F1F1" height="50" rx="12.5" ry="12.5" style="stroke:#181818;stroke-width:0.5;" width="66.0605" x="504.52" y="261.3138"/><line style="stroke:#181818;stroke-width:0.5;" x1="504.52" x2="570.5805" y1="287.6106" y2="287.6106"/><text fill="#000000" font-family="sans-serif" font-size="14" lengthAdjust="spacing" textLength="46.0605" x="514.52" y="279.3089">Falling</text></g><!--reverse link Falling to Flying--><g class="link" data-entity-1="Falling" data-entity-2="Flying" data-source-line="13" data-uid="lnk13" id="link_Falling_Flying"><path d="M576.7739,305.4164 C582.6139,306.4164 582.53,305.2638 588.36,303.9938" fill="none" id="Falling-backto-Flying" style="stroke:#181818;stroke-width:1;"/><polygon fill="#181818" points="570.86,304.4038,579.0558,309.8654,575.7883,305.2476,580.406,301.9801,570.86,304.4038" style="stroke:#181818;stroke-width:1;"/></g><!--link Falling to Flying--><g class="link" data-entity-1="Falling" data-entity-2="Flying" data-source-line="14" data-uid="lnk14" id="link_Falling_Flying"><path d="M570.86,268.2238 C576.7,267.2238 576.6675,266.0867 582.4975,267.3567" fill="none" id="Falling-to-Flying" style="stroke:#181818;stroke-width:1;"/><polygon fill="#181818" points="588.36,268.6338,580.4176,262.8098,583.4746,267.5695,578.7148,270.6265,588.36,268.6338" style="stroke:#181818;stroke-width:1;"/></g><path d="M237.09,398.3069 L388.9079,398.3069 A12.5,12.5 0 0 1 401.4079,410.8069 L401.4079,424.6038 L224.59,424.6038 L224.59,410.8069 A12.5,12.5 0 0 1 237.09,398.3069" fill="#F1F1F1"/><rect fill="none" height="98.2969" rx="12.5" ry="12.5" style="stroke:#181818;stroke-width:0.5;" width="176.8179" x="224.59" y="398.3069"/><line style="stroke:#181818;stroke-width:0.5;" x1="224.59" x2="401.4079" y1="424.6038" y2="424.6038"/><text fill="#000000" font-family="sans-serif" font-size="14" lengthAdjust="spacing" textLength="39.3203" x="293.3388" y="416.302">Wave</text><g id="Vivant.Wave.GoUp"><rect fill="#F1F1F1" height="50" rx="12.5" ry="12.5" style="stroke:#181818;stroke-width:0.5;" width="58.5479" x="333.86" y="436.6038"/><line style="stroke:#181818;stroke-width:0.5;" x1="333.86" x2="392.4079" y1="462.9006" y2="462.9006"/><text fill="#000000" font-family="sans-serif" font-size="14" lengthAdjust="spacing" textLength="38.5479" x="343.86" y="454.5989">GoUp</text></g><g id="Vivant.Wave.GoDown"><rect fill="#F1F1F1" height="50" rx="12.5" ry="12.5" style="stroke:#181818;stroke-width:0.5;" width="79.083" x="236.59" y="436.6038"/><line style="stroke:#181818;stroke-width:0.5;" x1="236.59" x2="315.673" y1="462.9006" y2="462.9006"/><text fill="#000000" font-family="sans-serif" font-size="14" lengthAdjust="spacing" textLength="59.083" x="246.59" y="454.5989">GoDown</text></g><!--reverse link GoDown to GoUp--><g class="link" data-entity-1="GoDown" data-entity-2="GoUp" data-source-line="18" data-uid="lnk18" id="link_GoDown_GoUp"><path d="M321.8734,480.6592 C327.7834,481.0992 327.7,480.0538 333.61,478.4138" fill="none" id="GoDown-backto-GoUp" style="stroke:#181818;stroke-width:1;"/><polygon fill="#181818" points="315.89,480.2138,324.5682,484.8709,320.8762,480.585,325.1621,476.893,315.89,480.2138" style="stroke:#181818;stroke-width:1;"/></g><!--link GoDown to GoUp--><g class="link" data-entity-1="GoDown" data-entity-2="GoUp" data-source-line="19" data-uid="lnk19" id="link_GoDown_GoUp"><path d="M315.89,442.9938 C321.8,442.5538 321.9185,441.5494 327.8285,443.1894" fill="none" id="GoDown-to-GoUp" style="stroke:#181818;stroke-width:1;"/><polygon fill="#181818" points="333.61,444.7938,326.0073,438.5329,328.7921,443.4568,323.8681,446.2416,333.61,444.7938" style="stroke:#181818;stroke-width:1;"/></g><ellipse cx="470" cy="53.2969" fill="#222222" rx="10" ry="10" style="stroke:#222222;stroke-width:1;"/><g id="Mort"><rect fill="#F1F1F1" height="50" rx="12.5" ry="12.5" style="stroke:#181818;stroke-width:0.5;" width="51.8896" x="734.06" y="247.1569"/><line style="stroke:#181818;stroke-width:0.5;" x1="734.06" x2="785.9496" y1="273.4538" y2="273.4538"/><text fill="#000000" font-family="sans-serif" font-size="14" lengthAdjust="spacing" textLength="31.8896" x="744.06" y="265.152">Mort</text></g><ellipse cx="760" cy="447.4569" fill="none" rx="11" ry="11" style="stroke:#222222;stroke-width:1;"/><ellipse cx="760" cy="447.4569" fill="#222222" rx="6" ry="6" style="stroke:#222222;stroke-width:1;"/><!--link *start* to Vivant--><g class="link" data-entity-1="*start*" data-entity-2="Vivant" data-source-line="2" data-uid="lnk3" id="link_*start*_Vivant"><path d="M470,63.6269 C470,74.8069 470,94.1669 470,111.1594 C470,113.2834 470,115.3705 470,117.4 C470,117.6537 470,111.9065 470,112.1583" fill="none" id="*start*-to-Vivant" style="stroke:#181818;stroke-width:1;"/><polygon fill="#181818" points="470,118.1583,474,109.1583,470,113.1583,466,109.1583,470,118.1583" style="stroke:#181818;stroke-width:1;"/></g><!--link Vivant to Cube--><g class="link" data-entity-1="Vivant" data-entity-2="Cube" data-source-line="5" data-uid="lnk4" id="link_Vivant_Cube"><path d="M469.53,146.2169 C462.25,149.3769 376.783,186.5259 299.083,220.2859" fill="none" id="Vivant-to-Cube" style="stroke:#181818;stroke-width:1;"/><polygon fill="#181818" points="293.58,222.6769,303.4285,222.759,298.1658,220.6844,300.2405,215.4217,293.58,222.6769" style="stroke:#181818;stroke-width:1;"/></g><!--reverse link Cube to Ship--><g class="link" data-entity-1="Cube" data-entity-2="Ship" data-source-line="22" data-uid="lnk21" id="link_Cube_Ship"><path d="M338.92,272.1569 C392.99,272.1569 445.96,272.1569 492.27,272.1569" fill="none" id="Cube-backto-Ship" style="stroke:#181818;stroke-width:1;"/><polygon fill="#181818" points="332.92,272.1569,341.92,276.1569,337.92,272.1569,341.92,268.1569,332.92,272.1569" style="stroke:#181818;stroke-width:1;"/><text fill="#000000" font-family="sans-serif" font-size="13" lengthAdjust="spacing" textLength="123.8936" x="351.07" y="265.2238">ChangeGameMode</text></g><!--link Cube to Ship--><g class="link" data-entity-1="Cube" data-entity-2="Ship" data-source-line="23" data-uid="lnk22" id="link_Cube_Ship"><path d="M333.12,292.0569 C378.78,295.4869 429.01,296.6769 475.07,292.1569 C480.67,291.6169 480.4824,291.7598 486.2624,290.9198" fill="none" id="Cube-to-Ship" style="stroke:#181818;stroke-width:1;"/><polygon fill="#181818" points="492.2,290.0569,482.7183,287.3928,487.252,290.776,483.8688,295.3097,492.2,290.0569" style="stroke:#181818;stroke-width:1;"/><text fill="#000000" font-family="sans-serif" font-size="13" lengthAdjust="spacing" textLength="123.8936" x="351.07" y="288.2238">ChangeGameMode</text></g><!--link Wave to Cube--><g class="link" data-entity-1="Wave" data-entity-2="Cube" data-source-line="24" data-uid="lnk23" id="link_Wave_Cube"><path d="M254.19,397.8969 C244.79,388.6469 235.65,378.6069 228,368.3069 C217.5,354.1669 210.9289,342.6979 203.6689,327.0779" fill="none" id="Wave-to-Cube" style="stroke:#181818;stroke-width:1;"/><polygon fill="#181818" points="201.14,321.6369,201.306,331.4843,203.2474,326.171,208.5607,328.1124,201.14,321.6369" style="stroke:#181818;stroke-width:1;"/><text fill="#000000" font-family="sans-serif" font-size="13" lengthAdjust="spacing" textLength="123.8936" x="229" y="364.3738">ChangeGameMode</text></g><!--link Cube to Wave--><g class="link" data-entity-1="Cube" data-entity-2="Wave" data-source-line="25" data-uid="lnk24" id="link_Cube_Wave"><path d="M92.7,321.7569 C78.15,335.8169 71.2,351.8369 83,368.3069 C114.99,412.9669 168.0509,431.4251 218.2709,439.7551" fill="none" id="Cube-to-Wave" style="stroke:#181818;stroke-width:1;"/><polygon fill="#181818" points="224.19,440.7369,215.9658,435.3181,219.2574,439.9187,214.6568,443.2102,224.19,440.7369" style="stroke:#181818;stroke-width:1;"/><text fill="#000000" font-family="sans-serif" font-size="13" lengthAdjust="spacing" textLength="123.8936" x="84" y="364.3738">ChangeGameMode</text></g><!--link Ship to Wave--><g class="link" data-entity-1="Ship" data-entity-2="Wave" data-source-line="26" data-uid="lnk25" id="link_Ship_Wave"><path d="M556.89,321.3869 C548.31,338.0769 536.74,355.7369 522,368.3069 C487.88,397.4069 447.6454,414.4711 407.4954,426.3011" fill="none" id="Ship-to-Wave" style="stroke:#181818;stroke-width:1;"/><polygon fill="#181818" points="401.74,427.9969,411.5036,429.2901,406.5361,426.5837,409.2425,421.6163,401.74,427.9969" style="stroke:#181818;stroke-width:1;"/><text fill="#000000" font-family="sans-serif" font-size="13" lengthAdjust="spacing" textLength="123.8936" x="537" y="364.3738">ChangeGameMode</text></g><!--reverse link Ship to Wave--><g class="link" data-entity-1="Ship" data-entity-2="Wave" data-source-line="27" data-uid="lnk27" id="link_Ship_Wave"><path d="M486.7707,301.5627 C453.9407,314.2027 422.7,329.3069 393,351.3069 C375.66,364.1569 359.66,381.4869 346.6,397.8369" fill="none" id="Ship-backto-Wave" style="stroke:#181818;stroke-width:1;"/><polygon fill="#181818" points="492.37,299.4069,482.5338,298.9077,487.7039,301.2034,485.4082,306.3735,492.37,299.4069" style="stroke:#181818;stroke-width:1;"/><text fill="#000000" font-family="sans-serif" font-size="13" lengthAdjust="spacing" textLength="123.8936" x="394" y="364.3738">ChangeGameMode</text></g><!--link Vivant to Mort--><g class="link" data-entity-1="Vivant" data-entity-2="Mort" data-source-line="30" data-uid="lnk29" id="link_Vivant_Mort"><path d="M710.164,212.5652 C710.2258,212.6116 710.2876,212.6581 710.3494,212.7047 C710.5965,212.8908 710.843,213.0782 711.0889,213.2666 C712.0727,214.0202 713.0472,214.7915 714.0119,215.5783 C717.8706,218.7253 721.5725,222.12 725.0825,225.6256 C732.1025,232.6369 734.7098,235.3261 739.9148,242.1311" fill="none" id="Vivant-to-Mort" style="stroke:#181818;stroke-width:1;"/><polygon fill="#181818" points="743.56,246.8969,741.2693,237.3181,740.5223,242.9254,734.915,242.1784,743.56,246.8969" style="stroke:#181818;stroke-width:1;"/><text fill="#000000" font-family="sans-serif" font-size="13" lengthAdjust="spacing" textLength="44.1162" x="674" y="189.0838">Collide</text></g><!--link Mort to *end*--><g class="link" data-entity-1="Mort" data-entity-2="*end*" data-source-line="31" data-uid="lnk31" id="link_Mort_*end*"><path d="M760,297.6269 C760,336.0669 760,403.0169 760,430.0469" fill="none" id="Mort-to-*end*" style="stroke:#181818;stroke-width:1;"/><polygon fill="#181818" points="760,436.0469,764,427.0469,760,431.0469,756,427.0469,760,436.0469" style="stroke:#181818;stroke-width:1;"/></g><!--SRC=[ZP9DJiCm48NtFiNia91yWIpOD6gaIbr1OO4GCdYKMF9FvDf55U90FKSlndYSbY0AmgkycM_Ul3X99bc4rgW-AkSGzDNna5G22IlCq1qFmM6AUsZLTX2FrqyWvGtScvtoIOWjaJWfU1T0Pn9I4xR8BoYuMi6Y9woSBeRiDMgGbk1LTgFnFJJyT8PEPHc9EKyqS1Vow_1S2mn_p3VT3cQSRLhQFNkKFKjbBOclNjLrmGJ-D7nGks_HmsQiTbremvk7MOTrZLkekHV7uZ6-YWOMW_8zTihXEcXaXZiyplH5XjF8VzWGmkn5fARv4wcBxAzXwBrE7voOTOYfC85kb9eiIvr-cqy0]--></g><link xmlns=""/><script xmlns=""/></svg>